<svg xmlns="http://www.w3.org/2000/svg" viewBox="0 0 167.49 104.67"><path d="M17.83,50.44A80.63,80.63,0,0,0,17.26,60c0,28.35,14.66,51.34,32.74,51.34S82.74,88.35,82.74,60a80.63,80.63,0,0,0-.57-9.56Z" transform="translate(-16.26 -7.66)" style="fill:#fff;stroke:#231f20;stroke-linecap:round;stroke-linejoin:round;stroke-width:2px"/><path d="M82.17,50.44H46.53a45.48,45.48,0,0,0-1,9.56c0,18,10.28,32.59,23,32.59a17,17,0,0,0,7.78-1.91A72.11,72.11,0,0,0,82.74,60,80.63,80.63,0,0,0,82.17,50.44Z" transform="translate(-16.26 -7.66)" style="stroke:#231f20;stroke-linecap:round;stroke-linejoin:round;stroke-width:2px"/><path d="M50,8.66c-16,0-29.31,18-32.17,41.78H82.17C79.31,26.66,66,8.66,50,8.66Z" transform="translate(-16.26 -7.66)" style="fill:none;stroke:#231f20;stroke-linecap:round;stroke-linejoin:round;stroke-width:2px"/><path d="M117.83,50.44a80.63,80.63,0,0,0-.57,9.56c0,28.35,14.66,51.34,32.74,51.34s32.74-23,32.74-51.34a80.63,80.63,0,0,0-.57-9.56Z" transform="translate(-16.26 -7.66)" style="fill:#fff;stroke:#231f20;stroke-linecap:round;stroke-linejoin:round;stroke-width:2px"/><path d="M182.17,50.44H146.53a45.48,45.48,0,0,0-1,9.56c0,18,10.28,32.59,23,32.59a17,17,0,0,0,7.78-1.91A72.11,72.11,0,0,0,182.74,60,80.63,80.63,0,0,0,182.17,50.44Z" transform="translate(-16.26 -7.66)" style="stroke:#231f20;stroke-linecap:round;stroke-linejoin:round;stroke-width:2px"/><path d="M150,8.66c-16,0-29.31,18-32.17,41.78h64.34C179.31,26.66,166,8.66,150,8.66Z" transform="translate(-16.26 -7.66)" style="fill:none;stroke:#231f20;stroke-linecap:round;stroke-linejoin:round;stroke-width:2px"/></svg>