<svg xmlns="http://www.w3.org/2000/svg" viewBox="0 0 792 612"><rect width="792" height="612" style="fill:none"/><ellipse cx="316.28" cy="211.8" rx="12.28" ry="19.25" style="fill:#fff;stroke:#231f20;stroke-linecap:round;stroke-linejoin:round"/><path d="M316.08,209.52s-2.92-4.25-6.18-.81a5.09,5.09,0,0,0,.14,6.07,69.33,69.33,0,0,0,6,5.7,67.82,67.82,0,0,0,6-5.7,5.09,5.09,0,0,0,.14-6.07C319,205.27,316.08,209.52,316.08,209.52Z" style="fill:#ee3331"/><ellipse cx="192.55" cy="211.8" rx="12.28" ry="19.25" style="fill:#fff;stroke:#231f20;stroke-linecap:round;stroke-linejoin:round"/><path d="M192.75,209.52s2.92-4.25,6.17-.81a5.07,5.07,0,0,1-.13,6.07,69.33,69.33,0,0,1-6,5.7,67.35,67.35,0,0,1-6.05-5.7,5.08,5.08,0,0,1-.13-6.07C189.82,205.27,192.75,209.52,192.75,209.52Z" style="fill:#ee3331"/></svg>