<svg xmlns="http://www.w3.org/2000/svg" viewBox="0 0 538.32 725.47">
  <g id="Eyes_Dizzy">
    <g id="Right">
      <ellipse cx="462.8" cy="425.14" rx="32.74" ry="51.34" style="fill: #fff;stroke: #231f20;stroke-linecap: round;stroke-linejoin: round;stroke-width: 2px"/>
      <g id="Layer_47" data-name="Layer 47">
        <g>
          <path d="M502.91,487c0-23.49-11.34-42.49-25.35-42.49s-25.36,19-25.36,42.49c0,21.35,10.31,38.62,23.05,38.62S498.3,508.37,498.3,487c0-19.22-9.28-34.77-20.74-34.77S456.81,467.8,456.81,487c0,17.08,8.25,30.9,18.44,30.9s18.44-13.82,18.44-30.9c0-14.95-7.22-27-16.13-27s-16.14,12.09-16.14,27c0,12.81,6.19,23.17,13.83,23.17s13.83-10.36,13.83-23.17c0-10.68-5.15-19.32-11.52-19.32S466,476.34,466,487c0,8.54,4.13,15.45,9.22,15.45s9.22-6.91,9.22-15.45c0-6.41-3.09-11.59-6.91-11.59s-6.92,5.18-6.92,11.59c0,4.27,2.06,7.72,4.61,7.72s4.61-3.45,4.61-7.72" transform="translate(-13.85 -60.71)" style="fill: none;stroke: #231f20;stroke-linecap: round;stroke-linejoin: round;stroke-width: 2px"/>
          <path d="M479.86,487c0-2.14-1-3.87-2.3-3.87s-2.31,1.73-2.31,3.87" transform="translate(-13.85 -60.71)" style="fill: none;stroke: #231f20;stroke-linecap: round;stroke-linejoin: round;stroke-width: 2px"/>
        </g>
      </g>
    </g>
    <g id="Right_copy" data-name="Right copy">
      <ellipse cx="132.89" cy="425.14" rx="32.74" ry="51.34" style="fill: #fff;stroke: #231f20;stroke-linecap: round;stroke-linejoin: round;stroke-width: 2px"/>
      <g id="Layer_47_copy" data-name="Layer 47 copy">
        <g>
          <path d="M172.91,487c0-23.49-11.34-42.49-25.35-42.49s-25.36,19-25.36,42.49c0,21.35,10.31,38.62,23,38.62S168.3,508.37,168.3,487c0-19.22-9.28-34.77-20.74-34.77S126.81,467.8,126.81,487c0,17.08,8.25,30.9,18.44,30.9s18.44-13.82,18.44-30.9c0-14.95-7.22-27-16.13-27s-16.14,12.09-16.14,27c0,12.81,6.19,23.17,13.83,23.17s13.83-10.36,13.83-23.17c0-10.68-5.15-19.32-11.52-19.32S136,476.34,136,487c0,8.54,4.13,15.45,9.22,15.45s9.22-6.91,9.22-15.45c0-6.41-3.09-11.59-6.91-11.59s-6.92,5.18-6.92,11.59c0,4.27,2.06,7.72,4.61,7.72s4.61-3.45,4.61-7.72" transform="translate(-13.85 -60.71)" style="fill: none;stroke: #231f20;stroke-linecap: round;stroke-linejoin: round;stroke-width: 2px"/>
          <path d="M149.86,487c0-2.14-1-3.87-2.3-3.87s-2.31,1.73-2.31,3.87" transform="translate(-13.85 -60.71)" style="fill: none;stroke: #231f20;stroke-linecap: round;stroke-linejoin: round;stroke-width: 2px"/>
        </g>
      </g>
    </g>
  </g>
</svg>
