<svg xmlns="http://www.w3.org/2000/svg" viewBox="0 0 792 612"><rect width="792" height="612" style="fill:none"/><ellipse cx="316.28" cy="212.28" rx="12.28" ry="19.74" style="fill:#fff;stroke:#231f20;stroke-linecap:round;stroke-linejoin:round"/><path d="M326.13,212.73c0-9-4.26-16.34-9.51-16.34s-9.51,7.31-9.51,16.34c0,8.2,3.87,14.84,8.64,14.84s8.65-6.64,8.65-14.84c0-7.39-3.48-13.37-7.78-13.37s-7.78,6-7.78,13.37c0,6.56,3.09,11.88,6.91,11.88s6.92-5.32,6.92-11.88c0-5.75-2.71-10.4-6.05-10.4s-6.05,4.65-6.05,10.4c0,4.92,2.32,8.91,5.18,8.91s5.19-4,5.19-8.91c0-4.11-1.93-7.43-4.32-7.43s-4.32,3.32-4.32,7.43c0,3.28,1.54,5.94,3.45,5.94s3.46-2.66,3.46-5.94c0-2.47-1.16-4.46-2.59-4.46s-2.59,2-2.59,4.46c0,1.64.77,3,1.72,3s1.73-1.33,1.73-3" style="fill:none;stroke:#231f20;stroke-linecap:round;stroke-linejoin:round"/><path d="M317.48,212.73c0-.83-.38-1.49-.86-1.49s-.87.66-.87,1.49" style="fill:none;stroke:#231f20;stroke-linecap:round;stroke-linejoin:round"/><ellipse cx="192.54" cy="212.28" rx="12.28" ry="19.74" style="fill:#fff;stroke:#231f20;stroke-linecap:round;stroke-linejoin:round"/><path d="M202.36,212.73c0-9-4.25-16.34-9.51-16.34s-9.51,7.31-9.51,16.34c0,8.2,3.87,14.84,8.65,14.84s8.64-6.64,8.64-14.84c0-7.39-3.48-13.37-7.78-13.37s-7.78,6-7.78,13.37c0,6.56,3.09,11.88,6.92,11.88s6.91-5.32,6.91-11.88c0-5.75-2.71-10.4-6.05-10.4s-6,4.65-6,10.4c0,4.92,2.32,8.91,5.19,8.91s5.18-4,5.18-8.91c0-4.11-1.93-7.43-4.32-7.43s-4.32,3.32-4.32,7.43c0,3.28,1.54,5.94,3.46,5.94s3.45-2.66,3.45-5.94c0-2.47-1.16-4.46-2.59-4.46s-2.59,2-2.59,4.46c0,1.64.77,3,1.73,3s1.72-1.33,1.72-3" style="fill:none;stroke:#231f20;stroke-linecap:round;stroke-linejoin:round"/><path d="M193.71,212.73c0-.83-.38-1.49-.86-1.49s-.86.66-.86,1.49" style="fill:none;stroke:#231f20;stroke-linecap:round;stroke-linejoin:round"/></svg>