<svg xmlns="http://www.w3.org/2000/svg" viewBox="0 0 167.49 104.67"><ellipse cx="133.74" cy="52.34" rx="32.74" ry="51.34" style="fill:#fff;stroke:#231f20;stroke-linecap:round;stroke-linejoin:round;stroke-width:2px"/><path d="M176.25,61.17c0-23.49-11.34-42.49-25.35-42.49s-25.35,19-25.35,42.49c0,21.35,10.31,38.62,23,38.62s23-17.27,23-38.62c0-19.22-9.27-34.77-20.74-34.77S130.16,42,130.16,61.17c0,17.08,8.24,30.9,18.44,30.9S167,78.25,167,61.17c0-15-7.21-27-16.13-27s-16.13,12.09-16.13,27c0,12.81,6.18,23.17,13.83,23.17S162.43,74,162.43,61.17c0-10.68-5.16-19.32-11.53-19.32s-11.52,8.64-11.52,19.32c0,8.54,4.12,15.45,9.22,15.45s9.22-6.91,9.22-15.45c0-6.41-3.1-11.59-6.92-11.59S144,54.76,144,61.17c0,4.27,2.06,7.72,4.61,7.72s4.61-3.45,4.61-7.72" transform="translate(-16.26 -7.66)" style="fill:none;stroke:#231f20;stroke-linecap:round;stroke-linejoin:round;stroke-width:2px"/><path d="M153.21,61.17c0-2.14-1-3.87-2.31-3.87s-2.3,1.73-2.3,3.87" transform="translate(-16.26 -7.66)" style="fill:none;stroke:#231f20;stroke-linecap:round;stroke-linejoin:round;stroke-width:2px"/><ellipse cx="33.74" cy="52.34" rx="32.74" ry="51.34" style="fill:#fff;stroke:#231f20;stroke-linecap:round;stroke-linejoin:round;stroke-width:2px"/><path d="M76.25,61.17c0-23.49-11.34-42.49-25.35-42.49s-25.35,19-25.35,42.49c0,21.35,10.31,38.62,23.05,38.62s23-17.27,23-38.62C71.64,42,62.37,26.4,50.9,26.4S30.16,42,30.16,61.17c0,17.08,8.24,30.9,18.44,30.9S67,78.25,67,61.17c0-15-7.21-27-16.13-27s-16.13,12.09-16.13,27C34.77,74,41,84.34,48.6,84.34S62.43,74,62.43,61.17c0-10.68-5.16-19.32-11.53-19.32S39.38,50.49,39.38,61.17c0,8.54,4.12,15.45,9.22,15.45s9.22-6.91,9.22-15.45c0-6.41-3.1-11.59-6.92-11.59S44,54.76,44,61.17c0,4.27,2.06,7.72,4.61,7.72s4.61-3.45,4.61-7.72" transform="translate(-16.26 -7.66)" style="fill:none;stroke:#231f20;stroke-linecap:round;stroke-linejoin:round;stroke-width:2px"/><path d="M53.21,61.17c0-2.14-1-3.87-2.31-3.87S48.6,59,48.6,61.17" transform="translate(-16.26 -7.66)" style="fill:none;stroke:#231f20;stroke-linecap:round;stroke-linejoin:round;stroke-width:2px"/></svg>