<svg xmlns="http://www.w3.org/2000/svg" viewBox="0 0 538.32 725.47">
  <g id="Right">
    <ellipse cx="462.8" cy="425.14" rx="32.74" ry="51.34" style="fill: #fff;stroke: #231f20;stroke-linecap: round;stroke-linejoin: round;stroke-width: 2px"/>
    <g id="Layer_27" data-name="Layer 27">
      <path d="M476.12,479.76s-7.8-11.31-16.47-2.14c-3,3.2-3.77,11.45.36,16.18,5.76,6.61,16.26,15.27,16.11,15.19-.14.08,10.35-8.58,16.11-15.19,4.13-4.73,3.39-13,.36-16.18C483.92,468.45,476.12,479.76,476.12,479.76Z" transform="translate(-13.85 -60.71)" style="fill: #ee3331"/>
    </g>
  </g>
  <g id="Left">
    <ellipse cx="132.89" cy="425.14" rx="32.74" ry="51.34" style="fill: #fff;stroke: #231f20;stroke-linecap: round;stroke-linejoin: round;stroke-width: 2px"/>
    <g id="Layer_27_copy" data-name="Layer 27 copy">
      <path d="M147.27,479.76s7.8-11.31,16.47-2.14c3,3.2,3.77,11.45-.36,16.18-5.76,6.61-16.25,15.27-16.11,15.19.15.08-10.35-8.58-16.11-15.19-4.12-4.73-3.39-13-.35-16.18C139.48,468.45,147.27,479.76,147.27,479.76Z" transform="translate(-13.85 -60.71)" style="fill: #ee3331"/>
    </g>
  </g>
</svg>
