<svg xmlns="http://www.w3.org/2000/svg" viewBox="0 0 792 612"><rect width="792" height="612" style="fill:none"/><ellipse cx="316.28" cy="212.28" rx="12.28" ry="19.74" style="fill:#fff;stroke:#231f20;stroke-linecap:round;stroke-linejoin:round"/><path d="M318.14,212.81l6.16-4.6c-1.08-5.5-4.27-9.49-8.05-9.49-4.66,0-8.44,6.07-8.44,13.56s3.78,13.55,8.44,13.55c3.31,0,6.17-3.06,7.55-7.52Z" style="fill:#231f20"/><ellipse cx="192.54" cy="212.28" rx="12.28" ry="19.74" style="fill:#fff;stroke:#231f20;stroke-linecap:round;stroke-linejoin:round"/><path d="M194.41,212.81l6.15-4.6c-1.07-5.5-4.27-9.49-8.05-9.49-4.66,0-8.43,6.07-8.43,13.56s3.77,13.55,8.43,13.55c3.31,0,6.17-3.06,7.55-7.52Z" style="fill:#231f20"/><ellipse cx="316.28" cy="212.28" rx="12.28" ry="19.74" style="fill:#fff;stroke:#231f20;stroke-linecap:round;stroke-linejoin:round"/><path d="M316.08,209.94s-2.92-4.35-6.18-.83a5.32,5.32,0,0,0,.14,6.22,68.77,68.77,0,0,0,6,5.84,68.77,68.77,0,0,0,6-5.84,5.32,5.32,0,0,0,.14-6.22C319,205.59,316.08,209.94,316.08,209.94Z" style="fill:#ee3331"/><ellipse cx="192.54" cy="212.28" rx="12.28" ry="19.74" style="fill:#fff;stroke:#231f20;stroke-linecap:round;stroke-linejoin:round"/><path d="M192.74,209.94s2.93-4.35,6.18-.83a5.31,5.31,0,0,1-.13,6.22,68.29,68.29,0,0,1-6,5.84,70.3,70.3,0,0,1-6-5.84,5.3,5.3,0,0,1-.13-6.22C189.82,205.59,192.74,209.94,192.74,209.94Z" style="fill:#ee3331"/></svg>