<svg xmlns="http://www.w3.org/2000/svg" viewBox="0 0 167.6 104.78"><ellipse cx="33.85" cy="52.34" rx="32.74" ry="51.34" style="fill:none;stroke:#231f20;stroke-linecap:round;stroke-linejoin:round;stroke-width:2px"/><line x1="66.6" y1="52.34" x2="1.11" y2="52.34" style="fill:#fff;stroke:#231f20;stroke-miterlimit:10;stroke-width:2px"/><ellipse cx="133.85" cy="52.34" rx="32.74" ry="51.34" style="fill:none;stroke:#231f20;stroke-linecap:round;stroke-linejoin:round;stroke-width:2px"/><line x1="101.11" y1="52.34" x2="166.6" y2="52.34" style="fill:#fff;stroke:#231f20;stroke-miterlimit:10;stroke-width:2px"/><ellipse cx="133.85" cy="52.45" rx="32.74" ry="51.34" style="fill:#fff;stroke:#231f20;stroke-linecap:round;stroke-linejoin:round;stroke-width:2px"/><path d="M149.46,54S141.67,42.71,133,51.87c-3,3.21-3.77,11.45.35,16.19,5.76,6.6,16.26,15.27,16.11,15.19-.14.08,10.35-8.59,16.11-15.19,4.13-4.74,3.39-13,.36-16.19C157.26,42.71,149.46,54,149.46,54Z" transform="translate(-16.15 -7.66)" style="fill:#ee3331"/><ellipse cx="33.74" cy="52.34" rx="32.74" ry="51.34" style="fill:#fff;stroke:#231f20;stroke-linecap:round;stroke-linejoin:round;stroke-width:2px"/><path d="M49.36,53.91s-7.8-11.31-16.47-2.15c-3,3.21-3.77,11.45.35,16.19C39,74.55,49.5,83.22,49.36,83.13c-.15.09,10.34-8.58,16.11-15.18,4.12-4.74,3.39-13,.35-16.19C57.15,42.6,49.36,53.91,49.36,53.91Z" transform="translate(-16.15 -7.66)" style="fill:#ee3331"/></svg>