<svg xmlns="http://www.w3.org/2000/svg" viewBox="0 0 167.49 104.67"><ellipse cx="133.74" cy="52.34" rx="32.74" ry="51.34" style="fill:#fff;stroke:#231f20;stroke-linecap:round;stroke-linejoin:round;stroke-width:2px"/><ellipse cx="133.74" cy="52.34" rx="26.23" ry="41.12" style="fill:#7d7d7d;stroke:#231f20;stroke-linecap:round;stroke-linejoin:round;stroke-width:2px"/><ellipse cx="133.74" cy="52.34" rx="18.47" ry="28.96" style="fill:#020202;stroke:#231f20;stroke-linecap:round;stroke-linejoin:round;stroke-width:2px"/><ellipse cx="127.14" cy="32.13" rx="8.59" ry="12.14" style="fill:#fff;stroke:#fff;stroke-linecap:round;stroke-linejoin:round;stroke-width:2px"/><ellipse cx="165.5" cy="74.27" rx="1.66" ry="5.11" transform="translate(-20.3 131.12) rotate(-45)" style="fill:#fff;stroke:#fff;stroke-linecap:round;stroke-linejoin:round;stroke-width:2px"/><ellipse cx="161.47" cy="81.46" rx="1.66" ry="5.11" transform="translate(-26.56 130.37) rotate(-45)" style="fill:#fff;stroke:#fff;stroke-linecap:round;stroke-linejoin:round;stroke-width:2px"/><ellipse cx="33.74" cy="52.34" rx="32.74" ry="51.34" style="fill:#fff;stroke:#231f20;stroke-linecap:round;stroke-linejoin:round;stroke-width:2px"/><ellipse cx="33.74" cy="52.34" rx="26.23" ry="41.12" style="fill:#7d7d7d;stroke:#231f20;stroke-linecap:round;stroke-linejoin:round;stroke-width:2px"/><ellipse cx="33.74" cy="52.34" rx="18.47" ry="28.96" style="fill:#020202;stroke:#231f20;stroke-linecap:round;stroke-linejoin:round;stroke-width:2px"/><ellipse cx="27.14" cy="32.13" rx="8.59" ry="12.14" style="fill:#fff;stroke:#fff;stroke-linecap:round;stroke-linejoin:round;stroke-width:2px"/><ellipse cx="65.5" cy="74.27" rx="1.66" ry="5.11" transform="translate(-49.59 60.41) rotate(-45)" style="fill:#fff;stroke:#fff;stroke-linecap:round;stroke-linejoin:round;stroke-width:2px"/><ellipse cx="61.47" cy="81.46" rx="1.66" ry="5.11" transform="translate(-55.85 59.66) rotate(-45)" style="fill:#fff;stroke:#fff;stroke-linecap:round;stroke-linejoin:round;stroke-width:2px"/></svg>