<svg xmlns="http://www.w3.org/2000/svg" viewBox="0 0 792 612"><rect width="792" height="612" style="fill:none"/><ellipse cx="316.28" cy="212.28" rx="12.28" ry="19.74" style="fill:#fff;stroke:#231f20;stroke-linecap:round;stroke-linejoin:round"/><ellipse cx="316.28" cy="212.28" rx="9.84" ry="15.81" style="fill:#7d7d7d;stroke:#231f20;stroke-linecap:round;stroke-linejoin:round"/><ellipse cx="316.28" cy="212.28" rx="6.93" ry="11.13" style="fill:#020202;stroke:#231f20;stroke-linecap:round;stroke-linejoin:round"/><ellipse cx="313.8" cy="204.51" rx="3.22" ry="4.67" style="fill:#fff;stroke:#fff;stroke-linecap:round;stroke-linejoin:round"/><ellipse cx="322.1" cy="217.76" rx="0.63" ry="1.94" transform="translate(-60.72 285.71) rotate(-44.13)" style="fill:#fff;stroke:#fff;stroke-linecap:round;stroke-linejoin:round"/><ellipse cx="320.58" cy="220.53" rx="0.63" ry="1.94" transform="translate(-63.07 285.44) rotate(-44.13)" style="fill:#fff;stroke:#fff;stroke-linecap:round;stroke-linejoin:round"/><ellipse cx="192.54" cy="212.28" rx="12.28" ry="19.74" style="fill:#fff;stroke:#231f20;stroke-linecap:round;stroke-linejoin:round"/><ellipse cx="192.54" cy="212.28" rx="9.84" ry="15.81" style="fill:#7d7d7d;stroke:#231f20;stroke-linecap:round;stroke-linejoin:round"/><ellipse cx="192.54" cy="212.28" rx="6.93" ry="11.13" style="fill:#020202;stroke:#231f20;stroke-linecap:round;stroke-linejoin:round"/><ellipse cx="190.07" cy="204.51" rx="3.22" ry="4.67" style="fill:#fff;stroke:#fff;stroke-linecap:round;stroke-linejoin:round"/><ellipse cx="198.36" cy="217.76" rx="0.63" ry="1.94" transform="translate(-95.64 199.56) rotate(-44.13)" style="fill:#fff;stroke:#fff;stroke-linecap:round;stroke-linejoin:round"/><ellipse cx="196.85" cy="220.53" rx="0.63" ry="1.94" transform="translate(-97.99 199.29) rotate(-44.13)" style="fill:#fff;stroke:#fff;stroke-linecap:round;stroke-linejoin:round"/></svg>