<svg xmlns="http://www.w3.org/2000/svg" viewBox="0 0 538.32 725.47">
  <g id="Layer_52" data-name="Layer 52">
    <ellipse cx="462.8" cy="425.14" rx="32.74" ry="51.34" style="fill: #fff;stroke: #231f20;stroke-linecap: round;stroke-linejoin: round;stroke-width: 2px"/>
    <ellipse cx="462.8" cy="425.14" rx="26.23" ry="41.12" style="fill: #7d7d7d;stroke: #231f20;stroke-linecap: round;stroke-linejoin: round;stroke-width: 2px"/>
    <ellipse cx="462.8" cy="425.14" rx="18.47" ry="28.96" style="fill: #020202;stroke: #231f20;stroke-linecap: round;stroke-linejoin: round;stroke-width: 2px"/>
    <ellipse cx="456.2" cy="404.94" rx="8.59" ry="12.14" style="fill: #fff;stroke: #fff;stroke-linecap: round;stroke-linejoin: round;stroke-width: 2px"/>
    <ellipse cx="492.16" cy="500.12" rx="1.66" ry="5.11" transform="translate(-223.34 433.78) rotate(-45)" style="fill: #fff;stroke: #fff;stroke-linecap: round;stroke-linejoin: round;stroke-width: 2px"/>
    <ellipse cx="488.13" cy="507.31" rx="1.66" ry="5.11" transform="translate(-229.61 433.04) rotate(-45)" style="fill: #fff;stroke: #fff;stroke-linecap: round;stroke-linejoin: round;stroke-width: 2px"/>
  </g>
  <g id="Layer_52_copy" data-name="Layer 52 copy">
    <ellipse cx="132.89" cy="425.14" rx="32.74" ry="51.34" style="fill: #fff;stroke: #231f20;stroke-linecap: round;stroke-linejoin: round;stroke-width: 2px"/>
    <ellipse cx="132.89" cy="425.14" rx="26.23" ry="41.12" style="fill: #7d7d7d;stroke: #231f20;stroke-linecap: round;stroke-linejoin: round;stroke-width: 2px"/>
    <ellipse cx="132.89" cy="425.14" rx="18.47" ry="28.96" style="fill: #020202;stroke: #231f20;stroke-linecap: round;stroke-linejoin: round;stroke-width: 2px"/>
    <ellipse cx="126.28" cy="404.94" rx="8.59" ry="12.14" style="fill: #fff;stroke: #fff;stroke-linecap: round;stroke-linejoin: round;stroke-width: 2px"/>
    <ellipse cx="162.24" cy="500.12" rx="1.66" ry="5.11" transform="translate(-319.97 200.5) rotate(-45)" style="fill: #fff;stroke: #fff;stroke-linecap: round;stroke-linejoin: round;stroke-width: 2px"/>
    <ellipse cx="158.21" cy="507.31" rx="1.66" ry="5.11" transform="translate(-326.24 199.75) rotate(-45)" style="fill: #fff;stroke: #fff;stroke-linecap: round;stroke-linejoin: round;stroke-width: 2px"/>
  </g>
</svg>

