<svg xmlns="http://www.w3.org/2000/svg" viewBox="0 0 792 612"><rect width="792" height="612" style="fill:none"/><path d="M304.22,208.6a31.63,31.63,0,0,0-.22,3.68c0,10.9,5.5,19.73,12.28,19.73s12.28-8.83,12.28-19.73a31.65,31.65,0,0,0-.21-3.68Z" style="fill:#fff;stroke:#231f20;stroke-linecap:round;stroke-linejoin:round"/><path d="M328.35,208.6H315a17.59,17.59,0,0,0-.38,3.68c0,6.92,3.86,12.53,8.61,12.53a6.21,6.21,0,0,0,2.92-.74,28.23,28.23,0,0,0,2.43-11.79A31.65,31.65,0,0,0,328.35,208.6Z" style="stroke:#231f20;stroke-linecap:round;stroke-linejoin:round"/><path d="M316.28,192.55c-6,0-11,6.91-12.06,16h24.13C327.27,199.46,322.28,192.55,316.28,192.55Z" style="fill:none;stroke:#231f20;stroke-linecap:round;stroke-linejoin:round"/><path d="M180.48,208.6a31.65,31.65,0,0,0-.21,3.68c0,10.9,5.49,19.73,12.28,19.73s12.28-8.83,12.28-19.73a31.63,31.63,0,0,0-.22-3.68Z" style="fill:#fff;stroke:#231f20;stroke-linecap:round;stroke-linejoin:round"/><path d="M204.61,208.6H191.24a18.3,18.3,0,0,0-.37,3.68c0,6.92,3.85,12.53,8.61,12.53a6.2,6.2,0,0,0,2.91-.74,28.23,28.23,0,0,0,2.44-11.79A31.63,31.63,0,0,0,204.61,208.6Z" style="stroke:#231f20;stroke-linecap:round;stroke-linejoin:round"/><path d="M192.55,192.55c-6,0-11,6.91-12.07,16h24.13C203.54,199.46,198.55,192.55,192.55,192.55Z" style="fill:none;stroke:#231f20;stroke-linecap:round;stroke-linejoin:round"/></svg>