<svg xmlns="http://www.w3.org/2000/svg" viewBox="0 0 792 612"><rect width="792" height="612" style="fill:none"/><ellipse cx="316.3" cy="212" rx="12.26" ry="19.22" style="fill:#fff;stroke:#231f20;stroke-linecap:round;stroke-linejoin:round"/><path d="M318.16,212.52l6.15-4.48c-1.08-5.35-4.27-9.24-8-9.24-4.65,0-8.42,5.91-8.42,13.2s3.77,13.21,8.42,13.21c3.3,0,6.16-3,7.54-7.33Z" style="fill:#231f20"/><ellipse cx="192.78" cy="212" rx="12.26" ry="19.22" style="fill:#fff;stroke:#231f20;stroke-linecap:round;stroke-linejoin:round"/><path d="M194.64,212.52l6.14-4.48c-1.07-5.35-4.27-9.24-8-9.24-4.65,0-8.42,5.91-8.42,13.2s3.77,13.21,8.42,13.21c3.31,0,6.16-3,7.54-7.33Z" style="fill:#231f20"/></svg>