<svg xmlns="http://www.w3.org/2000/svg" viewBox="0 0 792 612"><rect width="792" height="612" style="fill:none"/><ellipse cx="316.4" cy="212.28" rx="12.16" ry="19.73" style="fill:#fff;stroke:#231f20;stroke-miterlimit:10"/><ellipse cx="316.4" cy="212.28" rx="9.36" ry="15.19" style="fill:none;stroke:#231f20;stroke-miterlimit:10"/><ellipse cx="316.4" cy="212.28" rx="6.54" ry="10.6" style="fill:#231f20;stroke:#231f20;stroke-miterlimit:10"/><ellipse cx="192.43" cy="212.28" rx="12.16" ry="19.73" style="fill:#fff;stroke:#231f20;stroke-miterlimit:10"/><ellipse cx="192.43" cy="212.28" rx="9.36" ry="15.19" style="fill:none;stroke:#231f20;stroke-miterlimit:10"/><ellipse cx="192.43" cy="212.28" rx="6.54" ry="10.6" style="fill:#231f20;stroke:#231f20;stroke-miterlimit:10"/><ellipse cx="316.28" cy="212.28" rx="12.28" ry="19.74" style="fill:#fff;stroke:#231f20;stroke-linecap:round;stroke-linejoin:round"/><path d="M318.14,212.81l6.16-4.6c-1.08-5.5-4.27-9.49-8.05-9.49-4.66,0-8.44,6.07-8.44,13.56s3.78,13.55,8.44,13.55c3.31,0,6.17-3.06,7.55-7.52Z" style="fill:#231f20"/><ellipse cx="192.54" cy="212.28" rx="12.28" ry="19.74" style="fill:#fff;stroke:#231f20;stroke-linecap:round;stroke-linejoin:round"/><path d="M194.41,212.81l6.15-4.6c-1.07-5.5-4.27-9.49-8.05-9.49-4.66,0-8.43,6.07-8.43,13.56s3.77,13.55,8.43,13.55c3.31,0,6.17-3.06,7.55-7.52Z" style="fill:#231f20"/></svg>