<svg xmlns="http://www.w3.org/2000/svg" viewBox="0 0 538.32 725.47">
  <ellipse cx="462.8" cy="425.14" rx="32.74" ry="51.34" style="fill: #fff;stroke: #231f20;stroke-linecap: round;stroke-linejoin: round;stroke-width: 2px"/>
  <path d="M481.62,487.23l16.41-12c-2.86-14.31-11.39-24.69-21.46-24.69-12.42,0-22.49,15.79-22.49,35.26s10.07,35.27,22.49,35.27c8.82,0,16.45-8,20.14-19.56Z" transform="translate(-13.85 -60.71)" style="fill: #231f20"/>
  <ellipse cx="132.89" cy="425.14" rx="32.74" ry="51.34" style="fill: #fff;stroke: #231f20;stroke-linecap: round;stroke-linejoin: round;stroke-width: 2px"/>
  <path d="M151.7,487.23l16.41-12c-2.86-14.31-11.39-24.69-21.46-24.69-12.42,0-22.49,15.79-22.49,35.26s10.07,35.27,22.49,35.27c8.83,0,16.46-8,20.14-19.56Z" transform="translate(-13.85 -60.71)" style="fill: #231f20"/>
</svg>
