<svg xmlns="http://www.w3.org/2000/svg" viewBox="0 0 167.82 104.67"><ellipse cx="134.07" cy="52.34" rx="32.74" ry="51.34" style="fill:#fff;stroke:#231f20;stroke-linecap:round;stroke-linejoin:round;stroke-width:2px"/><path d="M155.3,61.38l16.41-12c-2.87-14.3-11.39-24.68-21.47-24.68-12.42,0-22.49,15.78-22.49,35.26s10.07,35.26,22.49,35.26c8.83,0,16.46-8,20.14-19.56Z" transform="translate(-16.26 -7.66)" style="fill:#231f20"/><ellipse cx="33.74" cy="52.34" rx="32.74" ry="51.34" style="fill:#fff;stroke:#231f20;stroke-linecap:round;stroke-linejoin:round;stroke-width:2px"/><path d="M55,61.38l16.41-12C68.51,35.12,60,24.74,49.91,24.74,37.49,24.74,27.42,40.52,27.42,60S37.49,95.26,49.91,95.26c8.83,0,16.46-8,20.14-19.56Z" transform="translate(-16.26 -7.66)" style="fill:#231f20"/></svg>