<svg xmlns="http://www.w3.org/2000/svg" viewBox="0 0 167.49 104.67"><path d="M150,8.66c-17.77,0-32.22,22.2-32.72,49.87l61.94-21.68C173.82,20.13,162.77,8.66,150,8.66Z" transform="translate(-16.26 -7.66)" style="fill:none;stroke:#231f20;stroke-linecap:round;stroke-linejoin:round;stroke-width:2px"/><path d="M117.28,58.53c0,.49,0,1,0,1.47,0,28.35,14.66,51.34,32.74,51.34s32.74-23,32.74-51.34a75.58,75.58,0,0,0-3.52-23.15Z" transform="translate(-16.26 -7.66)" style="fill:#fff;stroke:#231f20;stroke-linecap:round;stroke-linejoin:round;stroke-width:2px"/><path d="M128.38,54.64c-.17,1.75-.26,3.54-.26,5.36,0,19,9.79,34.31,21.88,34.31S171.88,79,171.88,60a48.8,48.8,0,0,0-3.77-19.26Z" transform="translate(-16.26 -7.66)" style="stroke:#231f20;stroke-linecap:round;stroke-linejoin:round;stroke-width:2px"/><path d="M50,8.66c17.77,0,32.22,22.2,32.72,49.87L20.78,36.85C26.18,20.13,37.23,8.66,50,8.66Z" transform="translate(-16.26 -7.66)" style="fill:none;stroke:#231f20;stroke-linecap:round;stroke-linejoin:round;stroke-width:2px"/><path d="M82.72,58.53c0,.49,0,1,0,1.47,0,28.35-14.66,51.34-32.74,51.34S17.26,88.35,17.26,60a75.58,75.58,0,0,1,3.52-23.15Z" transform="translate(-16.26 -7.66)" style="fill:#fff;stroke:#231f20;stroke-linecap:round;stroke-linejoin:round;stroke-width:2px"/><path d="M71.62,54.64c.17,1.75.26,3.54.26,5.36,0,19-9.79,34.31-21.88,34.31S28.12,79,28.12,60a48.8,48.8,0,0,1,3.77-19.26Z" transform="translate(-16.26 -7.66)" style="stroke:#231f20;stroke-linecap:round;stroke-linejoin:round;stroke-width:2px"/></svg>