<svg xmlns="http://www.w3.org/2000/svg" viewBox="0 0 792 612"><rect width="792" height="612" style="fill:none"/><path d="M316.28,192.54c-6.66,0-12.08,8.54-12.27,19.17l23.23-8.33C325.22,197,321.07,192.54,316.28,192.54Z" style="fill:none;stroke:#231f20;stroke-linecap:round;stroke-linejoin:round"/><path d="M304,211.71c0,.19,0,.38,0,.57,0,10.9,5.5,19.73,12.28,19.73s12.28-8.83,12.28-19.73a29.78,29.78,0,0,0-1.32-8.9Z" style="fill:#fff;stroke:#231f20;stroke-linecap:round;stroke-linejoin:round"/><path d="M308.17,210.22c-.06.67-.1,1.36-.1,2.06,0,7.28,3.68,13.19,8.21,13.19s8.21-5.91,8.21-13.19a19,19,0,0,0-1.42-7.41Z" style="stroke:#231f20;stroke-linecap:round;stroke-linejoin:round"/><path d="M192.54,192.54c6.67,0,12.09,8.54,12.28,19.17l-23.24-8.33C183.61,197,187.75,192.54,192.54,192.54Z" style="fill:none;stroke:#231f20;stroke-linecap:round;stroke-linejoin:round"/><path d="M204.82,211.71v.57c0,10.9-5.49,19.73-12.28,19.73s-12.28-8.83-12.28-19.73a29.78,29.78,0,0,1,1.32-8.9Z" style="fill:#fff;stroke:#231f20;stroke-linecap:round;stroke-linejoin:round"/><path d="M200.65,210.22a19.88,19.88,0,0,1,.1,2.06c0,7.28-3.67,13.19-8.21,13.19s-8.2-5.91-8.2-13.19a19.23,19.23,0,0,1,1.41-7.41Z" style="stroke:#231f20;stroke-linecap:round;stroke-linejoin:round"/></svg>