<svg xmlns="http://www.w3.org/2000/svg" viewBox="0 0 538.32 725.47">
  <g id="Right">
    <g>
      <path d="M476.66,434.52c-17.77,0-32.23,22.19-32.72,49.86l61.94-21.68C500.48,446,489.42,434.52,476.66,434.52Z" transform="translate(-13.85 -60.71)" style="fill: none;stroke: #231f20;stroke-linecap: round;stroke-linejoin: round;stroke-width: 2px"/>
      <path d="M443.94,484.38c0,.49,0,1,0,1.47,0,28.35,14.66,51.34,32.75,51.34s32.74-23,32.74-51.34a75.58,75.58,0,0,0-3.52-23.15Z" transform="translate(-13.85 -60.71)" style="fill: #fff;stroke: #231f20;stroke-linecap: round;stroke-linejoin: round;stroke-width: 2px"/>
    </g>
    <path d="M455,480.5a52.07,52.07,0,0,0-.27,5.35c0,18.95,9.8,34.31,21.89,34.31s21.88-15.36,21.88-34.31a48.8,48.8,0,0,0-3.77-19.26Z" transform="translate(-13.85 -60.71)" style="stroke: #231f20;stroke-linecap: round;stroke-linejoin: round;stroke-width: 2px"/>
  </g>
  <g id="Left">
    <g>
      <path d="M146.74,434.52c17.77,0,32.22,22.19,32.72,49.86L117.52,462.7C122.92,446,134,434.52,146.74,434.52Z" transform="translate(-13.85 -60.71)" style="fill: none;stroke: #231f20;stroke-linecap: round;stroke-linejoin: round;stroke-width: 2px"/>
      <path d="M179.46,484.38c0,.49,0,1,0,1.47,0,28.35-14.66,51.34-32.74,51.34S114,514.2,114,485.85a75.58,75.58,0,0,1,3.52-23.15Z" transform="translate(-13.85 -60.71)" style="fill: #fff;stroke: #231f20;stroke-linecap: round;stroke-linejoin: round;stroke-width: 2px"/>
    </g>
    <path d="M168.36,480.5c.17,1.74.26,3.53.26,5.35,0,18.95-9.79,34.31-21.88,34.31s-21.89-15.36-21.89-34.31a48.8,48.8,0,0,1,3.78-19.26Z" transform="translate(-13.85 -60.71)" style="stroke: #231f20;stroke-linecap: round;stroke-linejoin: round;stroke-width: 2px"/>
  </g>
</svg>

