<svg xmlns="http://www.w3.org/2000/svg" viewBox="0 0 792 612"><rect width="792" height="612" style="fill:none"/><ellipse cx="316.28" cy="212.28" rx="12.28" ry="19.74" style="fill:#fff;stroke:#231f20;stroke-linecap:round;stroke-linejoin:round"/><ellipse cx="316.28" cy="212.28" rx="7.55" ry="12.13" style="fill:#ec2c2b;stroke:#231f20;stroke-linecap:round;stroke-linejoin:round"/><ellipse cx="316.28" cy="212.28" rx="3.97" ry="6.38" style="stroke:#000;stroke-linecap:round;stroke-linejoin:round"/><path d="M325.45,219.66a3,3,0,0,0-1.32-4,1.55,1.55,0,0,0-2.16.54,1.63,1.63,0,0,0,.53,2.21,1.55,1.55,0,0,0,2.16-.54h0C325.59,218.25,325.5,218.75,325.45,219.66Z" style="fill:#231f20;stroke:#231f20;stroke-linecap:round;stroke-linejoin:round"/><path d="M306.37,218.1a2.8,2.8,0,0,0,4.1.24,1.64,1.64,0,0,0,.32-2.26,1.55,1.55,0,0,0-2.2-.33,1.65,1.65,0,0,0-.32,2.26h0C307.59,218.76,307.17,218.48,306.37,218.1Z" style="fill:#231f20;stroke:#231f20;stroke-linecap:round;stroke-linejoin:round"/><path d="M317.38,198.08s-2.63.09-2.63,3.23a1.57,1.57,0,1,0,1.57-1.61h0C316.14,198.69,316.61,198.51,317.38,198.08Z" style="fill:#231f20;stroke:#231f20;stroke-linecap:round;stroke-linejoin:round"/><ellipse cx="192.54" cy="212.28" rx="12.28" ry="19.74" style="fill:#fff;stroke:#231f20;stroke-linecap:round;stroke-linejoin:round"/><ellipse cx="192.54" cy="212.28" rx="7.55" ry="12.13" style="fill:#ec2c2b;stroke:#231f20;stroke-linecap:round;stroke-linejoin:round"/><ellipse cx="192.54" cy="212.28" rx="3.97" ry="6.38" style="stroke:#000;stroke-linecap:round;stroke-linejoin:round"/><path d="M201.72,219.66a3,3,0,0,0-1.32-4,1.55,1.55,0,0,0-2.16.54,1.62,1.62,0,0,0,.52,2.21,1.55,1.55,0,0,0,2.16-.54h0C201.86,218.25,201.76,218.75,201.72,219.66Z" style="fill:#231f20;stroke:#231f20;stroke-linecap:round;stroke-linejoin:round"/><path d="M182.63,218.1a2.81,2.81,0,0,0,4.1.24,1.65,1.65,0,0,0,.33-2.26,1.55,1.55,0,0,0-2.2-.33,1.64,1.64,0,0,0-.33,2.26h0C183.85,218.76,183.43,218.48,182.63,218.1Z" style="fill:#231f20;stroke:#231f20;stroke-linecap:round;stroke-linejoin:round"/><path d="M193.65,198.08s-2.64.09-2.64,3.23a1.57,1.57,0,1,0,1.57-1.61h0C192.4,198.69,192.87,198.51,193.65,198.08Z" style="fill:#231f20;stroke:#231f20;stroke-linecap:round;stroke-linejoin:round"/></svg>