<svg xmlns="http://www.w3.org/2000/svg" viewBox="0 0 167.49 104.67"><ellipse cx="133.74" cy="52.34" rx="32.74" ry="51.34" style="fill:#fff;stroke:#231f20;stroke-linecap:round;stroke-linejoin:round;stroke-width:2px"/><ellipse cx="133.74" cy="52.34" rx="20.12" ry="31.54" style="fill:#ec2c2b;stroke:#231f20;stroke-linecap:round;stroke-linejoin:round;stroke-width:2px"/><ellipse cx="133.74" cy="52.34" rx="10.58" ry="16.59" style="stroke:#000;stroke-linecap:round;stroke-linejoin:round;stroke-width:2px"/><path d="M174.46,79.2s3.45-6.13-3.52-10.38a4.19,4.19,0,1,0,1.4,5.76h0C174.83,75.53,174.59,76.85,174.46,79.2Z" transform="translate(-16.26 -7.66)" style="fill:#231f20;stroke:#231f20;stroke-linecap:round;stroke-linejoin:round"/><path d="M123.56,75.14s4.4,5.5,10.95.62a4.19,4.19,0,1,0-5.87-.86h0C126.83,76.86,125.7,76.13,123.56,75.14Z" transform="translate(-16.26 -7.66)" style="fill:#231f20;stroke:#231f20;stroke-linecap:round;stroke-linejoin:round"/><path d="M152.94,23.06s-7,.24-7,8.41a4.2,4.2,0,1,0,4.19-4.2h0C149.61,24.65,150.87,24.18,152.94,23.06Z" transform="translate(-16.26 -7.66)" style="fill:#231f20;stroke:#231f20;stroke-linecap:round;stroke-linejoin:round"/><ellipse cx="33.74" cy="52.34" rx="32.74" ry="51.34" style="fill:#fff;stroke:#231f20;stroke-linecap:round;stroke-linejoin:round;stroke-width:2px"/><ellipse cx="33.74" cy="52.34" rx="20.12" ry="31.54" style="fill:#ec2c2b;stroke:#231f20;stroke-linecap:round;stroke-linejoin:round;stroke-width:2px"/><ellipse cx="33.74" cy="52.34" rx="10.58" ry="16.59" style="stroke:#000;stroke-linecap:round;stroke-linejoin:round;stroke-width:2px"/><path d="M74.46,79.2s3.45-6.13-3.52-10.38a4.19,4.19,0,1,0,1.4,5.76h0C74.83,75.53,74.59,76.85,74.46,79.2Z" transform="translate(-16.26 -7.66)" style="fill:#231f20;stroke:#231f20;stroke-linecap:round;stroke-linejoin:round"/><path d="M23.56,75.14s4.4,5.5,11,.62a4.19,4.19,0,1,0-5.87-.86h0C26.83,76.86,25.7,76.13,23.56,75.14Z" transform="translate(-16.26 -7.66)" style="fill:#231f20;stroke:#231f20;stroke-linecap:round;stroke-linejoin:round"/><path d="M52.94,23.06s-7,.24-7,8.41a4.2,4.2,0,1,0,4.19-4.2h0C49.61,24.65,50.87,24.18,52.94,23.06Z" transform="translate(-16.26 -7.66)" style="fill:#231f20;stroke:#231f20;stroke-linecap:round;stroke-linejoin:round"/></svg>