<svg xmlns="http://www.w3.org/2000/svg" viewBox="0 0 538.32 725.47"><defs><style>.cls-1,.cls-10,.cls-5,.cls-7,.cls-9{fill:none;}.cls-1,.cls-10,.cls-2,.cls-5,.cls-6,.cls-7,.cls-8,.cls-9{stroke:#231f20;}.cls-1,.cls-2,.cls-5,.cls-7{stroke-linecap:round;}.cls-1,.cls-2,.cls-5,.cls-6,.cls-7{stroke-linejoin:round;}.cls-1,.cls-10{stroke-width:4px;}.cls-2,.cls-3,.cls-6,.cls-8{fill:#fff;}.cls-2{stroke-width:3px;}.cls-4{fill:#e8e8e8;}.cls-7{stroke-width:0.5px;}.cls-10,.cls-8,.cls-9{stroke-miterlimit:10;}.cls-8,.cls-9{stroke-width:2px;}</style></defs><g id="Boomi"><g id="Body"><polyline class="cls-1" points="422.37 513.34 476.37 723.47 418.65 723.47 398.52 689.25 197.18 689.25 177.04 723.47 119.32 723.47 173.32 513.34"/><path class="cls-1" d="M550,664.72,459.88,574H436.22l37.39,145.52A95.27,95.27,0,0,0,521.38,709C554.55,692.23,550,664.72,550,664.72Z" transform="translate(-13.85 -60.71)"/><path class="cls-1" d="M163.51,574h23.67l-37.4,145.52A95.24,95.24,0,0,1,102,709c-33.18-16.78-28.58-44.29-28.58-44.29L163.51,574" transform="translate(-13.85 -60.71)"/></g><g id="Head_Group" data-name="Head Group"><g id="Antennae"><path class="cls-2" d="M288.82,288.11,431.5,62.22a22.12,22.12,0,0,1,12.41,3.53,32.51,32.51,0,0,1,9.61,10.56L314.36,288.11" transform="translate(-13.85 -60.71)"/><path class="cls-2" d="M154.51,287.83,35,64.21s-4.46-2.08-11.57,1.21c-6.32,2.93-8,7.81-8,7.81L131.69,294" transform="translate(-13.85 -60.71)"/></g><g id="Handle"><polygon points="97.04 240.99 99.98 239.91 105.41 237.91 97.04 241.18 97.04 240.99"/><polygon class="cls-3" points="99.77 239.33 99.98 239.91 97.04 240.99 97.04 188.97 143.18 142.3 297.85 142.3 452.52 142.3 498.66 188.97 498.66 241.11 495.93 239.92 495.93 190.21 451.08 144.6 431.19 144.6 297.85 144.6 164.48 144.6 144.62 144.6 99.77 190.21 99.77 239.33"/><polygon points="116.94 233.41 116.94 193.5 160.09 144.63 164.48 144.6 119.94 194.63 119.94 232.56 105.41 237.91 116.94 233.41"/><polygon class="cls-4" points="116.94 193.5 116.94 233.41 105.41 237.91 99.98 239.91 99.77 239.33 99.77 190.21 144.62 144.6 164.48 144.6 160.09 144.63 116.94 193.5"/><polygon points="501.66 187.74 501.66 242.15 498.63 241.22 498.66 241.11 498.66 188.97 452.52 142.3 297.85 142.3 143.18 142.3 97.04 188.97 97.04 240.99 94.04 242.1 94.04 187.74 141.93 139.3 297.85 139.3 453.77 139.3 501.66 187.74"/><polygon points="495.93 239.92 498.66 241.11 498.63 241.22 475.75 234.21 475.75 194.63 431.19 144.6 435.73 144.71 478.75 193.5 478.75 232.41 495.93 239.92"/><polygon class="cls-4" points="495.93 190.21 495.93 239.92 478.75 232.41 478.75 193.5 435.73 144.71 431.19 144.6 451.08 144.6 495.93 190.21"/><polyline class="cls-5" points="99.77 239.33 99.77 190.21 144.62 144.6 164.48 144.6 297.85 144.6 431.19 144.6 451.08 144.6 495.93 190.21 495.93 239.92 495.93 240.11"/><line class="cls-6" x1="477.25" y1="194.06" x2="495.93" y2="190.21"/></g><g id="Head"><line class="cls-7" x1="118.44" y1="194.06" x2="99.77" y2="190.21"/><path class="cls-7" d="M530.11,352.42" transform="translate(-13.85 -60.71)"/><path class="cls-7" d="M436.22,574" transform="translate(-13.85 -60.71)"/><circle class="cls-8" cx="337.11" cy="414.17" r="10.59"/><circle class="cls-8" cx="258.26" cy="413.63" r="10.59"/><line class="cls-9" x1="268.85" y1="413.78" x2="326.51" y2="414.17"/><polygon class="cls-8" points="424.14 263.13 445.61 263.13 448.25 278.98 426.77 278.98 424.14 263.13"/><polygon class="cls-8" points="453.14 263.13 474.61 263.13 477.25 278.98 455.77 278.98 453.14 263.13"/><polygon class="cls-8" points="480.14 263.13 501.61 263.13 504.25 278.98 482.77 278.98 480.14 263.13"/><polyline class="cls-9" points="89.17 243.63 297.85 243.63 506.53 243.63"/><line class="cls-9" x1="408.28" y1="291.71" x2="516.26" y2="291.71"/><line class="cls-9" x1="187.13" y1="291.02" x2="79.16" y2="290.35"/></g><g id="Teeth"><polygon class="cls-8" points="187.73 474.5 187.77 493.27 407.93 493.27 407.96 474.5 187.73 474.5"/></g><g id="TeethLines"><line class="cls-9" x1="307.9" y1="474.5" x2="307.9" y2="493.27"/><line class="cls-9" x1="327.9" y1="474.5" x2="327.9" y2="493.27"/><line class="cls-9" x1="347.9" y1="474.5" x2="347.9" y2="493.27"/><line class="cls-9" x1="367.9" y1="474.5" x2="367.9" y2="493.27"/><line class="cls-9" x1="387.9" y1="474.5" x2="387.9" y2="493.27"/><line class="cls-9" x1="287.79" y1="474.5" x2="287.79" y2="493.27"/><line class="cls-9" x1="267.79" y1="474.5" x2="267.79" y2="493.27"/><line class="cls-9" x1="247.79" y1="474.5" x2="247.79" y2="493.27"/><line class="cls-9" x1="227.79" y1="474.5" x2="227.79" y2="493.27"/><line class="cls-9" x1="207.79" y1="474.5" x2="207.79" y2="493.27"/></g><g id="InnerFaceplate"><polygon class="cls-9" points="209.9 273.7 205.9 291.71 205.9 404.81 227.79 404.81 227.79 384.03 367.9 384.03 367.9 404.81 389.79 404.81 390.79 291.71 385.79 273.7 209.9 273.7"/><polygon class="cls-9" points="205.9 464.6 205.9 423.23 227.79 423.23 227.79 445.11 367.9 445.11 367.9 423.23 389.79 423.23 389.79 464.6 205.9 464.6"/></g><g id="FacePlate"><polygon class="cls-9" points="407.96 474.5 408.28 291.71 399.57 256.35 194.12 256.35 187.41 291.71 187.73 474.5 407.96 474.5"/></g><g id="OuterHead"><polygon class="cls-10" points="82.76 513.34 79.39 288.34 86.17 243.89 136.14 227.12 297.85 227.45 459.55 227.12 506.53 243.89 516.31 291.34 512.93 513.34 82.76 513.34"/></g></g></g></svg>