<svg xmlns="http://www.w3.org/2000/svg" viewBox="0 0 451.68 511.64"><ellipse cx="344.75" cy="379.86" rx="40.8" ry="56.55"/><path d="M569.39,207.59,400,207.66h-.67l33.35-92.87A20,20,0,0,0,395,101.27l-38.2,106.37-71.73,0L243.48,100.77a20,20,0,1,0-37.27,14.52l35.95,92.3H230.61c-30.91,0-56.36,25.15-56.45,56.06v291a45,45,0,0,0,45,45H580.82a45,45,0,0,0,45-45v-291C625.75,232.74,600.3,207.59,569.39,207.59Zm-355.1,93,.09-36.83a16.26,16.26,0,0,1,16.23-16.18h27.13l20.55,52.76H219.18A46.53,46.53,0,0,0,214.29,300.6Zm66.8,248.5c-32.36,0-58.6-36.36-58.6-81.22s26.24-81.22,58.6-81.22,58.6,36.36,58.6,81.22S313.45,549.1,281.09,549.1Zm42.45-248.76h-2.33l-20.55-52.78,41.84,0ZM518.91,549.1c-32.36,0-58.6-36.36-58.6-81.22s26.24-81.22,58.6-81.22,58.6,36.36,58.6,81.22S551.27,549.1,518.91,549.1Zm61.91-248.76H366.05l19-52.82h15l169.39.07a16.26,16.26,0,0,1,16.23,16.18l.09,36.83A46.53,46.53,0,0,0,580.82,300.34Z" transform="translate(-174.16 -88.03)"/><ellipse cx="106.93" cy="379.86" rx="40.8" ry="56.55" /></svg>