<svg xmlns="http://www.w3.org/2000/svg" viewBox="0 0 792 612"><rect width="792" height="612" style="fill:none"/><polyline points="772.03 147.95 711.75 243.39 633.57 243.39" style="fill:none;stroke:#231f20;stroke-miterlimit:10"/><polyline points="772.03 147.95 711.75 52.52 633.57 52.52" style="fill:none;stroke:#231f20;stroke-miterlimit:10"/><polyline points="495.1 147.95 555.39 52.52 633.57 52.52 633.57 243.39 555.39 243.39 495.1 147.95" style="fill:none;stroke:#231f20;stroke-miterlimit:10"/><path d="M404.13,536.24" style="fill:none;stroke:#231f20;stroke-miterlimit:10"/><polyline points="223.95 493.63 404.13 493.63 404.13 536.24" style="fill:none;stroke:#231f20;stroke-miterlimit:10"/><path d="M224,493.63" style="fill:none;stroke:#231f20;stroke-miterlimit:10"/><line x1="315.98" y1="493.63" x2="315.98" y2="536.24" style="fill:none;stroke:#231f20;stroke-miterlimit:10"/><line x1="287.8" y1="493.63" x2="287.8" y2="536.24" style="fill:none;stroke:#231f20;stroke-miterlimit:10"/><line x1="265.91" y1="493.63" x2="265.91" y2="536.24" style="fill:none;stroke:#231f20;stroke-miterlimit:10"/><polyline points="223.95 493.63 43.76 493.63 43.76 536.24" style="fill:none;stroke:#231f20;stroke-miterlimit:10"/><line x1="131.92" y1="493.63" x2="131.92" y2="536.24" style="fill:none;stroke:#231f20;stroke-miterlimit:10"/><line x1="160.09" y1="493.63" x2="160.09" y2="536.24" style="fill:none;stroke:#231f20;stroke-miterlimit:10"/><line x1="181.98" y1="493.63" x2="181.98" y2="536.24" style="fill:none;stroke:#231f20;stroke-miterlimit:10"/><polyline points="223.95 578.85 404.13 578.85 404.13 536.24 43.76 536.24 43.76 578.85 223.95 578.85" style="fill:none;stroke:#231f20;stroke-miterlimit:10"/><line x1="315.98" y1="578.85" x2="315.98" y2="536.24" style="fill:none;stroke:#231f20;stroke-miterlimit:10"/><line x1="287.8" y1="578.85" x2="287.8" y2="536.24" style="fill:none;stroke:#231f20;stroke-miterlimit:10"/><line x1="265.91" y1="578.85" x2="265.91" y2="536.24" style="fill:none;stroke:#231f20;stroke-miterlimit:10"/><line x1="131.92" y1="578.85" x2="131.92" y2="536.24" style="fill:none;stroke:#231f20;stroke-miterlimit:10"/><line x1="160.09" y1="578.85" x2="160.09" y2="536.24" style="fill:none;stroke:#231f20;stroke-miterlimit:10"/><line x1="181.98" y1="578.85" x2="181.98" y2="536.24" style="fill:none;stroke:#231f20;stroke-miterlimit:10"/><path d="M377.19,592.75" style="fill:none;stroke:#231f20;stroke-miterlimit:10"/><polyline points="454.65 482.51 466.33 470.83 545.45 470.48 557.48 482.51 562.26 466.63 591.06 451.34 606.7 456.05" style="fill:none;stroke:#231f20;stroke-miterlimit:10"/><polyline points="663.61 370.31 647.09 373.66 603.53 439.92 606.7 456.05" style="fill:none;stroke:#231f20;stroke-miterlimit:10"/><path d="M677.49,578.53" style="fill:none;stroke:#231f20;stroke-miterlimit:10"/><line x1="582.1" y1="469.28" x2="612.22" y2="525.31" style="fill:none;stroke:#231f20;stroke-linecap:round;stroke-miterlimit:10;stroke-dasharray:3"/><path d="M779.89,403.45" style="fill:none;stroke:#231f20;stroke-miterlimit:10"/><path d="M766.3,299.16l-97.79,15.51L666,342.5l-2.41,27.81L635.2,413.17l-28.5,42.88-24.6,13.23-24.62,13.23H454.65l-24.18,96H581.66l59.28-48.85L653.31,540l20.14-10.8,13.38-20.14-9-13.54L702.77,458l24.91-37.58,16,3L757,403.21l2-23-14.36-7.32Z" style="fill:none;stroke:#231f20;stroke-miterlimit:10"/><polyline points="663.61 370.31 653.05 357.79 655.75 325.33 668.51 314.67" style="fill:none;stroke:#231f20;stroke-miterlimit:10"/><line x1="666.02" y1="342.5" x2="729.38" y2="348.18" style="fill:none;stroke:#231f20;stroke-linecap:round;stroke-miterlimit:10;stroke-dasharray:3"/><line x1="557.48" y1="482.51" x2="581.66" y2="578.53" style="fill:none;stroke:#231f20;stroke-miterlimit:10"/><line x1="606.7" y1="456.05" x2="673.45" y2="529.21" style="fill:none;stroke:#231f20;stroke-miterlimit:10"/><line x1="663.61" y1="370.31" x2="757" y2="403.21" style="fill:none;stroke:#231f20;stroke-miterlimit:10"/><polyline points="244.02 12.49 328.23 12.49 328.23 458.08 244.02 458.08" style="fill:none;stroke:#231f20;stroke-miterlimit:10"/><line x1="328.23" y1="353.61" x2="244.02" y2="353.61" style="fill:none;stroke:#231f20;stroke-miterlimit:10"/><polyline points="244.02 232.24 450.44 232.24 450.44 125.89 344.79 125.89 328.23 142.09 289.15 142.09" style="fill:none;stroke:#231f20;stroke-miterlimit:10"/><line x1="328.23" y1="118.37" x2="244.02" y2="118.37" style="fill:none;stroke:#231f20;stroke-miterlimit:10"/><polyline points="244.02 125.89 288.68 125.89 288.68 224.37 244.02 224.37" style="fill:none;stroke:#231f20;stroke-miterlimit:10"/><polyline points="244.02 134.34 280 134.34 280 187.51 272.13 187.51 272.13 179.76 244.02 179.76" style="fill:none;stroke:#231f20;stroke-miterlimit:10"/><polyline points="244.02 211.46 280 211.46 280 195.96 272.13 195.96 272.13 203.71 244.02 203.71" style="fill:none;stroke:#231f20;stroke-miterlimit:10"/><line x1="288.68" y1="215.39" x2="244.02" y2="215.39" style="fill:none;stroke:#231f20;stroke-miterlimit:10"/><line x1="247.89" y1="215.39" x2="247.89" y2="224.37" style="fill:none;stroke:#231f20;stroke-miterlimit:10"/><line x1="255.99" y1="215.39" x2="255.99" y2="224.37" style="fill:none;stroke:#231f20;stroke-miterlimit:10"/><line x1="264.09" y1="215.39" x2="264.09" y2="224.37" style="fill:none;stroke:#231f20;stroke-miterlimit:10"/><line x1="271.93" y1="215.39" x2="271.93" y2="224.37" style="fill:none;stroke:#231f20;stroke-miterlimit:10"/><line x1="280.03" y1="215.39" x2="280.03" y2="224.37" style="fill:none;stroke:#231f20;stroke-miterlimit:10"/><circle cx="259.69" cy="191.44" r="3.93" style="fill:none;stroke:#231f20;stroke-miterlimit:10"/><line x1="255.76" y1="191.44" x2="244.02" y2="191.44" style="fill:none;stroke:#231f20;stroke-miterlimit:10"/><polyline points="328.23 125.89 344.79 125.89 352.07 109.98 450.44 109.98 450.44 125.89 470.86 138.56 470.86 213.69 450.44 232.24 432.83 251.72 347.23 251.72 328.23 232.24" style="fill:none;stroke:#231f20;stroke-miterlimit:10"/><polyline points="244.02 266.04 295.96 266.04 295.96 321.92 244.02 321.92" style="fill:none;stroke:#231f20;stroke-miterlimit:10"/><polygon points="351.84 211.46 428.84 211.46 428.84 147.95 368.04 147.95 351.84 158.28 351.84 211.46" style="fill:none;stroke:#231f20;stroke-miterlimit:10"/><line x1="369.91" y1="193.26" x2="412.41" y2="193.26" style="fill:none;stroke:#231f20;stroke-miterlimit:10;stroke-width:0.5px"/><polyline points="328.23 458.08 315.68 475.22 244.02 475.22" style="fill:none;stroke:#231f20;stroke-miterlimit:10"/><polyline points="244.02 12.49 159.81 12.49 159.81 458.08 244.02 458.08" style="fill:none;stroke:#231f20;stroke-miterlimit:10"/><line x1="159.81" y1="353.61" x2="244.02" y2="353.61" style="fill:none;stroke:#231f20;stroke-miterlimit:10"/><polyline points="244.02 232.24 37.6 232.24 37.6 125.89 143.25 125.89 159.81 142.09 198.89 142.09" style="fill:none;stroke:#231f20;stroke-miterlimit:10"/><line x1="159.81" y1="118.37" x2="244.02" y2="118.37" style="fill:none;stroke:#231f20;stroke-miterlimit:10"/><polyline points="244.02 125.89 199.35 125.89 199.35 224.37 244.02 224.37" style="fill:none;stroke:#231f20;stroke-miterlimit:10"/><polyline points="244.02 134.34 208.04 134.34 208.04 187.51 215.91 187.51 215.91 179.76 244.02 179.76" style="fill:none;stroke:#231f20;stroke-miterlimit:10"/><polyline points="244.02 211.46 208.04 211.46 208.04 195.96 215.91 195.96 215.91 203.71 244.02 203.71" style="fill:none;stroke:#231f20;stroke-miterlimit:10"/><line x1="199.36" y1="215.39" x2="244.02" y2="215.39" style="fill:none;stroke:#231f20;stroke-miterlimit:10"/><line x1="240.15" y1="215.39" x2="240.15" y2="224.37" style="fill:none;stroke:#231f20;stroke-miterlimit:10"/><line x1="232.05" y1="215.39" x2="232.05" y2="224.37" style="fill:none;stroke:#231f20;stroke-miterlimit:10"/><line x1="223.95" y1="215.39" x2="223.95" y2="224.37" style="fill:none;stroke:#231f20;stroke-miterlimit:10"/><line x1="216.11" y1="215.39" x2="216.11" y2="224.37" style="fill:none;stroke:#231f20;stroke-miterlimit:10"/><line x1="208.01" y1="215.39" x2="208.01" y2="224.37" style="fill:none;stroke:#231f20;stroke-miterlimit:10"/><circle cx="228.35" cy="191.44" r="3.93" style="fill:none;stroke:#231f20;stroke-miterlimit:10"/><line x1="232.28" y1="191.44" x2="244.02" y2="191.44" style="fill:none;stroke:#231f20;stroke-miterlimit:10"/><polyline points="159.81 125.89 143.25 125.89 135.97 109.98 37.6 109.98 37.6 125.89 17.18 138.56 17.18 213.69 37.6 232.24 55.21 251.72 140.81 251.72 159.81 232.24" style="fill:none;stroke:#231f20;stroke-miterlimit:10"/><polyline points="244.02 266.04 192.08 266.04 192.08 321.92 244.02 321.92" style="fill:none;stroke:#231f20;stroke-miterlimit:10"/><polygon points="136.2 211.46 59.2 211.46 59.2 147.95 120 147.95 136.2 158.28 136.2 211.46" style="fill:none;stroke:#231f20;stroke-miterlimit:10"/><line x1="118.13" y1="193.26" x2="75.63" y2="193.26" style="fill:none;stroke:#231f20;stroke-miterlimit:10;stroke-width:0.5px"/><polyline points="159.81 458.08 172.36 475.22 244.02 475.22" style="fill:none;stroke:#231f20;stroke-miterlimit:10"/><line x1="194.21" y1="388.92" x2="181.54" y2="420.62" style="fill:#fff;stroke:#231f20;stroke-miterlimit:10;stroke-dasharray:3"/><line x1="201.91" y1="388.92" x2="214.58" y2="420.62" style="fill:#fff;stroke:#231f20;stroke-miterlimit:10;stroke-dasharray:3"/><path d="M420.13,273.45,397,354.74l29.91,79.05a.74.74,0,0,0,.94.42A85.26,85.26,0,0,0,421,273,.73.73,0,0,0,420.13,273.45Z" style="fill:none;stroke:#231f20;stroke-miterlimit:10"/><line x1="397" y1="354.74" x2="465.67" y2="304.27" style="fill:none;stroke:#231f20;stroke-miterlimit:10;stroke-dasharray:3"/><path d="M520.13,273.45,497,354.74l29.91,79.05a.74.74,0,0,0,.94.42A85.26,85.26,0,0,0,521,273,.73.73,0,0,0,520.13,273.45Z" style="fill:none;stroke:#231f20;stroke-miterlimit:10"/><line x1="497" y1="354.74" x2="565.67" y2="304.27" style="fill:none;stroke:#231f20;stroke-miterlimit:10;stroke-dasharray:3"/></svg>