<svg xmlns="http://www.w3.org/2000/svg" viewBox="0 0 812.27 572.52"><polyline points="227.34 0.5 311.56 0.5 311.56 446.09 227.34 446.09" style="fill:none;stroke:#231f20;stroke-miterlimit:10"/><line x1="311.56" y1="341.62" x2="227.34" y2="341.62" style="fill:none;stroke:#231f20;stroke-miterlimit:10"/><polyline points="227.34 220.24 433.76 220.24 433.76 113.89 328.12 113.89 311.56 130.09 272.48 130.09" style="fill:none;stroke:#231f20;stroke-miterlimit:10"/><line x1="311.56" y1="106.38" x2="227.34" y2="106.38" style="fill:none;stroke:#231f20;stroke-miterlimit:10"/><polyline points="227.34 113.89 272.01 113.89 272.01 212.38 227.34 212.38" style="fill:none;stroke:#231f20;stroke-miterlimit:10"/><polyline points="227.34 122.34 263.32 122.34 263.32 175.52 255.46 175.52 255.46 167.77 227.34 167.77" style="fill:none;stroke:#231f20;stroke-miterlimit:10"/><polyline points="227.34 199.47 263.32 199.47 263.32 183.97 255.46 183.97 255.46 191.72 227.34 191.72" style="fill:none;stroke:#231f20;stroke-miterlimit:10"/><line x1="272.01" y1="203.4" x2="227.34" y2="203.4" style="fill:none;stroke:#231f20;stroke-miterlimit:10"/><line x1="231.22" y1="203.4" x2="231.22" y2="212.38" style="fill:none;stroke:#231f20;stroke-miterlimit:10"/><line x1="239.32" y1="203.4" x2="239.32" y2="212.38" style="fill:none;stroke:#231f20;stroke-miterlimit:10"/><line x1="247.42" y1="203.4" x2="247.42" y2="212.38" style="fill:none;stroke:#231f20;stroke-miterlimit:10"/><line x1="255.25" y1="203.4" x2="255.25" y2="212.38" style="fill:none;stroke:#231f20;stroke-miterlimit:10"/><line x1="263.35" y1="203.4" x2="263.35" y2="212.38" style="fill:none;stroke:#231f20;stroke-miterlimit:10"/><circle cx="243.01" cy="179.45" r="3.93" style="fill:none;stroke:#231f20;stroke-miterlimit:10"/><line x1="239.08" y1="179.45" x2="227.34" y2="179.45" style="fill:none;stroke:#231f20;stroke-miterlimit:10"/><polyline points="311.56 113.89 328.12 113.89 335.39 97.99 433.76 97.99 433.76 113.89 454.19 126.57 454.19 201.69 433.76 220.24 416.15 239.73 330.55 239.73 311.56 220.24" style="fill:none;stroke:#231f20;stroke-miterlimit:10"/><polyline points="227.34 254.05 279.29 254.05 279.29 309.92 227.34 309.92" style="fill:none;stroke:#231f20;stroke-miterlimit:10"/><polygon points="335.16 199.47 412.16 199.47 412.16 135.96 351.36 135.96 335.16 146.29 335.16 199.47" style="fill:none;stroke:#231f20;stroke-miterlimit:10"/><line x1="353.24" y1="181.27" x2="395.73" y2="181.27" style="fill:none;stroke:#231f20;stroke-miterlimit:10;stroke-width:0.5px"/><polyline points="311.56 446.09 299.01 463.23 227.34 463.23" style="fill:none;stroke:#231f20;stroke-miterlimit:10"/><polyline points="227.34 0.5 143.13 0.5 143.13 446.09 227.34 446.09" style="fill:none;stroke:#231f20;stroke-miterlimit:10"/><line x1="143.13" y1="341.62" x2="227.34" y2="341.62" style="fill:none;stroke:#231f20;stroke-miterlimit:10"/><polyline points="227.34 220.24 20.93 220.24 20.93 113.89 126.57 113.89 143.13 130.09 182.21 130.09" style="fill:none;stroke:#231f20;stroke-miterlimit:10"/><line x1="143.13" y1="106.38" x2="227.34" y2="106.38" style="fill:none;stroke:#231f20;stroke-miterlimit:10"/><polyline points="227.34 113.89 182.68 113.89 182.68 212.38 227.34 212.38" style="fill:none;stroke:#231f20;stroke-miterlimit:10"/><polyline points="227.34 122.34 191.37 122.34 191.37 175.52 199.23 175.52 199.23 167.77 227.34 167.77" style="fill:none;stroke:#231f20;stroke-miterlimit:10"/><polyline points="227.34 199.47 191.37 199.47 191.37 183.97 199.23 183.97 199.23 191.72 227.34 191.72" style="fill:none;stroke:#231f20;stroke-miterlimit:10"/><line x1="182.68" y1="203.4" x2="227.34" y2="203.4" style="fill:none;stroke:#231f20;stroke-miterlimit:10"/><line x1="223.47" y1="203.4" x2="223.47" y2="212.38" style="fill:none;stroke:#231f20;stroke-miterlimit:10"/><line x1="215.37" y1="203.4" x2="215.37" y2="212.38" style="fill:none;stroke:#231f20;stroke-miterlimit:10"/><line x1="207.27" y1="203.4" x2="207.27" y2="212.38" style="fill:none;stroke:#231f20;stroke-miterlimit:10"/><line x1="199.44" y1="203.4" x2="199.44" y2="212.38" style="fill:none;stroke:#231f20;stroke-miterlimit:10"/><line x1="191.34" y1="203.4" x2="191.34" y2="212.38" style="fill:none;stroke:#231f20;stroke-miterlimit:10"/><circle cx="211.67" cy="179.45" r="3.93" style="fill:none;stroke:#231f20;stroke-miterlimit:10"/><line x1="215.61" y1="179.45" x2="227.34" y2="179.45" style="fill:none;stroke:#231f20;stroke-miterlimit:10"/><polyline points="143.13 113.89 126.57 113.89 119.29 97.99 20.93 97.99 20.93 113.89 0.5 126.57 0.5 201.69 20.93 220.24 38.53 239.73 124.13 239.73 143.13 220.24" style="fill:none;stroke:#231f20;stroke-miterlimit:10"/><polyline points="227.34 254.05 175.4 254.05 175.4 309.92 227.34 309.92" style="fill:none;stroke:#231f20;stroke-miterlimit:10"/><polygon points="119.53 199.47 42.52 199.47 42.52 135.96 103.33 135.96 119.53 146.29 119.53 199.47" style="fill:none;stroke:#231f20;stroke-miterlimit:10"/><line x1="101.45" y1="181.27" x2="58.96" y2="181.27" style="fill:none;stroke:#231f20;stroke-miterlimit:10;stroke-width:0.5px"/><polyline points="143.13 446.09 155.68 463.23 227.34 463.23" style="fill:none;stroke:#231f20;stroke-miterlimit:10"/><line x1="177.53" y1="376.93" x2="164.87" y2="408.62" style="fill:#fff;stroke:#231f20;stroke-miterlimit:10;stroke-dasharray:3"/><line x1="185.24" y1="376.93" x2="197.9" y2="408.62" style="fill:#fff;stroke:#231f20;stroke-miterlimit:10;stroke-dasharray:3"/><ellipse cx="291.96" cy="183.71" rx="12.68" ry="20.57" style="fill:none;stroke:#231f20;stroke-miterlimit:10"/><ellipse cx="291.96" cy="183.71" rx="9.76" ry="15.83" style="fill:none;stroke:#231f20;stroke-miterlimit:10"/><ellipse cx="291.96" cy="183.71" rx="6.81" ry="11.06" style="fill:#231f20;stroke:#231f20;stroke-miterlimit:10"/><ellipse cx="162.72" cy="183.71" rx="12.68" ry="20.57" style="fill:none;stroke:#231f20;stroke-miterlimit:10"/><ellipse cx="162.72" cy="183.71" rx="9.76" ry="15.83" style="fill:none;stroke:#231f20;stroke-miterlimit:10"/><ellipse cx="162.72" cy="183.71" rx="6.81" ry="11.06" style="fill:#231f20;stroke:#231f20;stroke-miterlimit:10"/><polyline points="811.88 128.58 731.6 224.01 653.42 224.01" style="fill:none;stroke:#231f20;stroke-miterlimit:10"/><polyline points="811.88 128.58 731.6 33.15 653.42 33.15" style="fill:none;stroke:#231f20;stroke-miterlimit:10"/><polyline points="494.95 128.58 575.24 33.15 653.42 33.15 653.42 224.01 575.24 224.01 494.95 128.58" style="fill:none;stroke:#231f20;stroke-miterlimit:10"/><path d="M431.59,278.28" transform="translate(-12.71 -7.99)" style="fill:none;stroke:#231f20;stroke-miterlimit:10"/><path d="M451.59,258.28l-23.32,82L458.44,420a85.25,85.25,0,0,0-6.85-161.71Z" transform="translate(-12.71 -7.99)" style="fill:none;stroke:#231f20;stroke-miterlimit:10"/><line x1="415.56" y1="332.28" x2="484.23" y2="281.8" style="fill:none;stroke:#231f20;stroke-miterlimit:10;stroke-dasharray:3"/><path d="M551.59,258.28l-23.32,82L558.44,420a85.25,85.25,0,0,0-6.85-161.71Z" transform="translate(-12.71 -7.99)" style="fill:none;stroke:#231f20;stroke-miterlimit:10"/><line x1="515.56" y1="332.28" x2="584.23" y2="281.8" style="fill:none;stroke:#231f20;stroke-miterlimit:10;stroke-dasharray:3"/><path d="M408.27,537.4" transform="translate(-12.71 -7.99)" style="fill:none;stroke:#231f20;stroke-miterlimit:10"/><polyline points="215.38 486.8 395.56 486.8 395.56 529.41" style="fill:none;stroke:#231f20;stroke-miterlimit:10"/><path d="M228.09,494.79" transform="translate(-12.71 -7.99)" style="fill:none;stroke:#231f20;stroke-miterlimit:10"/><line x1="307.41" y1="486.8" x2="307.41" y2="529.41" style="fill:none;stroke:#231f20;stroke-miterlimit:10"/><line x1="279.24" y1="486.8" x2="279.24" y2="529.41" style="fill:none;stroke:#231f20;stroke-miterlimit:10"/><line x1="257.34" y1="486.8" x2="257.34" y2="529.41" style="fill:none;stroke:#231f20;stroke-miterlimit:10"/><polyline points="215.38 486.8 35.2 486.8 35.2 529.41" style="fill:none;stroke:#231f20;stroke-miterlimit:10"/><line x1="123.35" y1="486.8" x2="123.35" y2="529.41" style="fill:none;stroke:#231f20;stroke-miterlimit:10"/><line x1="151.52" y1="486.8" x2="151.52" y2="529.41" style="fill:none;stroke:#231f20;stroke-miterlimit:10"/><line x1="173.41" y1="486.8" x2="173.41" y2="529.41" style="fill:none;stroke:#231f20;stroke-miterlimit:10"/><polyline points="215.38 572.02 395.56 572.02 395.56 529.41 35.2 529.41 35.2 572.02 215.38 572.02" style="fill:none;stroke:#231f20;stroke-miterlimit:10"/><line x1="307.41" y1="572.02" x2="307.41" y2="529.41" style="fill:none;stroke:#231f20;stroke-miterlimit:10"/><line x1="279.24" y1="572.02" x2="279.24" y2="529.41" style="fill:none;stroke:#231f20;stroke-miterlimit:10"/><line x1="257.34" y1="572.02" x2="257.34" y2="529.41" style="fill:none;stroke:#231f20;stroke-miterlimit:10"/><line x1="123.35" y1="572.02" x2="123.35" y2="529.41" style="fill:none;stroke:#231f20;stroke-miterlimit:10"/><line x1="151.52" y1="572.02" x2="151.52" y2="529.41" style="fill:none;stroke:#231f20;stroke-miterlimit:10"/><line x1="173.41" y1="572.02" x2="173.41" y2="529.41" style="fill:none;stroke:#231f20;stroke-miterlimit:10"/><path d="M381.33,593.91" transform="translate(-12.71 -7.99)" style="fill:none;stroke:#231f20;stroke-miterlimit:10"/><path d="M577.3,587.76" transform="translate(-12.71 -7.99)" style="fill:none;stroke:#231f20;stroke-miterlimit:10"/><polyline points="466.89 463.16 478.57 451.48 557.68 451.13 569.72 463.16 574.5 447.28 603.3 431.99 618.94 436.7" style="fill:none;stroke:#231f20;stroke-miterlimit:10"/><polyline points="675.84 350.96 659.33 354.31 615.77 420.56 618.94 436.7" style="fill:none;stroke:#231f20;stroke-miterlimit:10"/><path d="M702.44,567.17" transform="translate(-12.71 -7.99)" style="fill:none;stroke:#231f20;stroke-miterlimit:10"/><line x1="594.33" y1="449.93" x2="624.46" y2="505.96" style="fill:none;stroke:#231f20;stroke-linecap:round;stroke-miterlimit:10;stroke-dasharray:3"/><path d="M804.84,392.09" transform="translate(-12.71 -7.99)" style="fill:none;stroke:#231f20;stroke-miterlimit:10"/><path d="M791.25,287.8l-97.8,15.51L691,331.14,688.55,359l-28.4,42.86-28.5,42.87L607,457.91l-24.61,13.24H479.6l-24.18,96H606.61l59.27-48.85,12.37,10.33,20.15-10.8,13.37-20.14-9-13.54,24.91-37.58L752.62,409l16,3L782,391.84l2-23-14.36-7.32Z" transform="translate(-12.71 -7.99)" style="fill:none;stroke:#231f20;stroke-miterlimit:10"/><polyline points="675.84 350.96 665.29 338.44 667.99 305.98 680.75 295.32" style="fill:none;stroke:#231f20;stroke-miterlimit:10"/><line x1="678.25" y1="323.15" x2="741.62" y2="328.83" style="fill:none;stroke:#231f20;stroke-linecap:round;stroke-miterlimit:10;stroke-dasharray:3"/><line x1="569.72" y1="463.16" x2="593.9" y2="559.18" style="fill:none;stroke:#231f20;stroke-miterlimit:10"/><line x1="618.94" y1="436.7" x2="685.69" y2="509.86" style="fill:none;stroke:#231f20;stroke-miterlimit:10"/><line x1="675.84" y1="350.96" x2="769.24" y2="383.86" style="fill:none;stroke:#231f20;stroke-miterlimit:10"/></svg>