<svg xmlns="http://www.w3.org/2000/svg" viewBox="0 0 792 612"><rect width="792" height="612" style="fill:none"/><polyline points="755.09 127.93 697.25 219.48 622.26 219.48" style="fill:none;stroke:#231f20;stroke-miterlimit:10"/><polyline points="755.09 127.93 697.25 36.39 622.26 36.39" style="fill:none;stroke:#231f20;stroke-miterlimit:10"/><polyline points="489.43 127.93 547.26 36.39 622.26 36.39 622.26 219.48 547.26 219.48 489.43 127.93" style="fill:none;stroke:#231f20;stroke-miterlimit:10"/><path d="M383.29,534.07" style="fill:none;stroke:#231f20;stroke-miterlimit:10"/><polyline points="210.45 493.2 383.29 493.2 383.29 534.08" style="fill:none;stroke:#231f20;stroke-miterlimit:10"/><path d="M210.45,493.2" style="fill:none;stroke:#231f20;stroke-miterlimit:10"/><line x1="298.73" y1="493.2" x2="298.73" y2="534.07" style="fill:none;stroke:#231f20;stroke-miterlimit:10"/><line x1="271.71" y1="493.2" x2="271.71" y2="534.07" style="fill:none;stroke:#231f20;stroke-miterlimit:10"/><line x1="250.71" y1="493.2" x2="250.71" y2="534.07" style="fill:none;stroke:#231f20;stroke-miterlimit:10"/><polyline points="210.45 493.2 37.61 493.2 37.61 534.08" style="fill:none;stroke:#231f20;stroke-miterlimit:10"/><line x1="122.17" y1="493.2" x2="122.17" y2="534.07" style="fill:none;stroke:#231f20;stroke-miterlimit:10"/><line x1="149.19" y1="493.2" x2="149.19" y2="534.07" style="fill:none;stroke:#231f20;stroke-miterlimit:10"/><line x1="170.2" y1="493.2" x2="170.2" y2="534.07" style="fill:none;stroke:#231f20;stroke-miterlimit:10"/><polyline points="210.45 574.95 383.29 574.95 383.29 534.08 37.61 534.08 37.61 574.95 210.45 574.95" style="fill:none;stroke:#231f20;stroke-miterlimit:10"/><line x1="298.73" y1="574.95" x2="298.73" y2="534.07" style="fill:none;stroke:#231f20;stroke-miterlimit:10"/><line x1="271.71" y1="574.95" x2="271.71" y2="534.07" style="fill:none;stroke:#231f20;stroke-miterlimit:10"/><line x1="250.71" y1="574.95" x2="250.71" y2="534.07" style="fill:none;stroke:#231f20;stroke-miterlimit:10"/><line x1="122.17" y1="574.95" x2="122.17" y2="534.07" style="fill:none;stroke:#231f20;stroke-miterlimit:10"/><line x1="149.19" y1="574.95" x2="149.19" y2="534.07" style="fill:none;stroke:#231f20;stroke-miterlimit:10"/><line x1="170.2" y1="574.95" x2="170.2" y2="534.07" style="fill:none;stroke:#231f20;stroke-miterlimit:10"/><path d="M357.45,588.28" style="fill:none;stroke:#231f20;stroke-miterlimit:10"/><polyline points="455.56 483.52 466.76 472.32 542.66 471.98 554.2 483.52 558.79 468.29 586.41 453.63 601.42 458.14" style="fill:none;stroke:#231f20;stroke-miterlimit:10"/><polyline points="656 375.9 640.16 379.11 598.37 442.67 601.42 458.14" style="fill:none;stroke:#231f20;stroke-miterlimit:10"/><path d="M669.33,575.63" style="fill:none;stroke:#231f20;stroke-miterlimit:10"/><line x1="577.81" y1="470.83" x2="606.71" y2="524.58" style="fill:none;stroke:#231f20;stroke-linecap:round;stroke-miterlimit:10;stroke-dasharray:3"/><path d="M767.55,407.69" style="fill:none;stroke:#231f20;stroke-miterlimit:10"/><path d="M754.52,307.64l-93.81,14.89-2.4,26.69L656,375.9,628.75,417l-27.33,41.13-23.61,12.69L554.2,483.52H455.56l-23.2,92.11h145l56.86-46.86,11.86,9.91,19.33-10.36L678.28,509l-8.6-13,23.89-36,23.89-36.05,15.32,2.87,12.81-19.34,2-22.09-13.77-7Z" style="fill:none;stroke:#231f20;stroke-miterlimit:10"/><polyline points="656 375.9 645.88 363.89 648.47 332.75 660.71 322.52" style="fill:none;stroke:#231f20;stroke-miterlimit:10"/><line x1="658.31" y1="349.22" x2="719.1" y2="354.67" style="fill:none;stroke:#231f20;stroke-linecap:round;stroke-miterlimit:10;stroke-dasharray:3"/><line x1="554.2" y1="483.52" x2="577.4" y2="575.63" style="fill:none;stroke:#231f20;stroke-miterlimit:10"/><line x1="601.42" y1="458.14" x2="665.45" y2="528.32" style="fill:none;stroke:#231f20;stroke-miterlimit:10"/><line x1="656" y1="375.9" x2="745.59" y2="407.45" style="fill:none;stroke:#231f20;stroke-miterlimit:10"/><polyline points="254.41 36.54 335.2 36.54 335.2 463.97 254.41 463.97" style="fill:none;stroke:#231f20;stroke-miterlimit:10"/><line x1="335.2" y1="363.76" x2="254.41" y2="363.76" style="fill:none;stroke:#231f20;stroke-miterlimit:10"/><polyline points="254.41 247.33 452.43 247.33 452.43 145.31 351.08 145.31 335.2 160.85 297.71 160.85" style="fill:none;stroke:#231f20;stroke-miterlimit:10"/><line x1="335.2" y1="138.1" x2="254.41" y2="138.1" style="fill:none;stroke:#231f20;stroke-miterlimit:10"/><polyline points="254.41 145.31 297.26 145.31 297.26 239.78 254.41 239.78" style="fill:none;stroke:#231f20;stroke-miterlimit:10"/><polyline points="254.41 153.42 288.93 153.42 288.93 204.43 281.38 204.43 281.38 197 254.41 197" style="fill:none;stroke:#231f20;stroke-miterlimit:10"/><polyline points="254.41 227.4 288.93 227.4 288.93 212.53 281.38 212.53 281.38 219.97 254.41 219.97" style="fill:none;stroke:#231f20;stroke-miterlimit:10"/><line x1="297.26" y1="231.17" x2="254.41" y2="231.17" style="fill:none;stroke:#231f20;stroke-miterlimit:10"/><line x1="258.13" y1="231.17" x2="258.13" y2="239.78" style="fill:none;stroke:#231f20;stroke-miterlimit:10"/><line x1="265.9" y1="231.17" x2="265.9" y2="239.78" style="fill:none;stroke:#231f20;stroke-miterlimit:10"/><line x1="273.67" y1="231.17" x2="273.67" y2="239.78" style="fill:none;stroke:#231f20;stroke-miterlimit:10"/><line x1="281.18" y1="231.17" x2="281.18" y2="239.78" style="fill:none;stroke:#231f20;stroke-miterlimit:10"/><line x1="288.95" y1="231.17" x2="288.95" y2="239.78" style="fill:none;stroke:#231f20;stroke-miterlimit:10"/><circle cx="269.45" cy="208.2" r="3.77" style="fill:none;stroke:#231f20;stroke-miterlimit:10"/><line x1="265.67" y1="208.2" x2="254.41" y2="208.2" style="fill:none;stroke:#231f20;stroke-miterlimit:10"/><polyline points="335.2 145.31 351.08 145.31 358.06 130.05 452.43 130.05 452.43 145.31 472.02 157.47 472.02 229.54 452.43 247.33 435.53 266.02 353.42 266.02 335.2 247.33" style="fill:none;stroke:#231f20;stroke-miterlimit:10"/><polyline points="254.41 279.76 304.24 279.76 304.24 333.36 254.41 333.36" style="fill:none;stroke:#231f20;stroke-miterlimit:10"/><polygon points="357.84 227.4 431.71 227.4 431.71 166.48 373.38 166.48 357.84 176.39 357.84 227.4" style="fill:none;stroke:#231f20;stroke-miterlimit:10"/><line x1="375.18" y1="209.94" x2="415.94" y2="209.94" style="fill:none;stroke:#231f20;stroke-miterlimit:10;stroke-width:0.5px"/><polyline points="335.2 463.97 323.16 480.41 254.41 480.41" style="fill:none;stroke:#231f20;stroke-miterlimit:10"/><polyline points="254.41 36.54 173.63 36.54 173.63 463.97 254.41 463.97" style="fill:none;stroke:#231f20;stroke-miterlimit:10"/><line x1="173.63" y1="363.76" x2="254.41" y2="363.76" style="fill:none;stroke:#231f20;stroke-miterlimit:10"/><polyline points="254.41 247.33 56.4 247.33 56.4 145.31 157.75 145.31 173.63 160.85 211.12 160.85" style="fill:none;stroke:#231f20;stroke-miterlimit:10"/><line x1="173.63" y1="138.1" x2="254.41" y2="138.1" style="fill:none;stroke:#231f20;stroke-miterlimit:10"/><polyline points="254.41 145.31 211.57 145.31 211.57 239.78 254.41 239.78" style="fill:none;stroke:#231f20;stroke-miterlimit:10"/><polyline points="254.41 153.42 219.9 153.42 219.9 204.43 227.45 204.43 227.45 197 254.41 197" style="fill:none;stroke:#231f20;stroke-miterlimit:10"/><polyline points="254.41 227.4 219.9 227.4 219.9 212.53 227.45 212.53 227.45 219.97 254.41 219.97" style="fill:none;stroke:#231f20;stroke-miterlimit:10"/><line x1="211.57" y1="231.17" x2="254.41" y2="231.17" style="fill:none;stroke:#231f20;stroke-miterlimit:10"/><line x1="250.7" y1="231.17" x2="250.7" y2="239.78" style="fill:none;stroke:#231f20;stroke-miterlimit:10"/><line x1="242.93" y1="231.17" x2="242.93" y2="239.78" style="fill:none;stroke:#231f20;stroke-miterlimit:10"/><line x1="235.16" y1="231.17" x2="235.16" y2="239.78" style="fill:none;stroke:#231f20;stroke-miterlimit:10"/><line x1="227.64" y1="231.17" x2="227.64" y2="239.78" style="fill:none;stroke:#231f20;stroke-miterlimit:10"/><line x1="219.87" y1="231.17" x2="219.87" y2="239.78" style="fill:none;stroke:#231f20;stroke-miterlimit:10"/><circle cx="239.38" cy="208.2" r="3.77" style="fill:none;stroke:#231f20;stroke-miterlimit:10"/><line x1="243.15" y1="208.2" x2="254.41" y2="208.2" style="fill:none;stroke:#231f20;stroke-miterlimit:10"/><polyline points="173.63 145.31 157.75 145.31 150.76 130.05 56.4 130.05 56.4 145.31 36.81 157.47 36.81 229.54 56.4 247.33 73.29 266.02 155.41 266.02 173.63 247.33" style="fill:none;stroke:#231f20;stroke-miterlimit:10"/><polyline points="254.41 279.76 204.59 279.76 204.59 333.36 254.41 333.36" style="fill:none;stroke:#231f20;stroke-miterlimit:10"/><polygon points="150.99 227.4 77.12 227.4 77.12 166.48 135.45 166.48 150.99 176.39 150.99 227.4" style="fill:none;stroke:#231f20;stroke-miterlimit:10"/><line x1="133.65" y1="209.94" x2="92.89" y2="209.94" style="fill:none;stroke:#231f20;stroke-miterlimit:10;stroke-width:0.5px"/><polyline points="173.63 463.97 185.67 480.41 254.41 480.41" style="fill:none;stroke:#231f20;stroke-miterlimit:10"/><line x1="206.63" y1="397.63" x2="194.48" y2="428.04" style="fill:#fff;stroke:#231f20;stroke-miterlimit:10;stroke-dasharray:3"/><line x1="214.02" y1="397.63" x2="226.17" y2="428.04" style="fill:#fff;stroke:#231f20;stroke-miterlimit:10;stroke-dasharray:3"/><path d="M413.35,290l-22.18,78,28.69,75.82a.69.69,0,0,0,.9.4,81.78,81.78,0,0,0-6.55-154.68A.69.69,0,0,0,413.35,290Z" style="fill:none;stroke:#231f20;stroke-miterlimit:10"/><line x1="391.17" y1="367.93" x2="457.04" y2="319.51" style="fill:none;stroke:#231f20;stroke-miterlimit:10;stroke-dasharray:3"/><path d="M509.27,290l-22.18,78,28.7,75.82a.69.69,0,0,0,.9.4,81.78,81.78,0,0,0-6.55-154.68A.71.71,0,0,0,509.27,290Z" style="fill:none;stroke:#231f20;stroke-miterlimit:10"/><line x1="487.09" y1="367.93" x2="552.97" y2="319.51" style="fill:none;stroke:#231f20;stroke-miterlimit:10;stroke-dasharray:3"/></svg>